<?xml version="1.0" encoding="utf-8"?>

<!DOCTYPE svg PUBLIC "-//W3C//DTD SVG 1.1//EN" "http://www.w3.org/Graphics/SVG/1.1/DTD/svg11.dtd">
<svg version="1.1" id="Layer_1" xmlns="http://www.w3.org/2000/svg" xmlns:xlink="http://www.w3.org/1999/xlink" x="0px" y="0px"
	 viewBox="596.9167 0.0194 1565.0834 1639.8086" enable-background="new 596.9167 0.0194 1565.0834 1639.8086" xml:space="preserve"
	>
<path d="M1520.5629,60.7246c9.2529,0,22.9001-2.2927,31.0228,1.2784c4.0228,1.7685,10.0901,1.592,14.4762,2.7188
	c5.8456,1.5018,11.6852,2.95,17.423,4.8376c19.8309,6.524,38.4539,17.5962,54.3069,31.1189
	c15.4873,13.2107,28.811,28.8823,38.5651,46.7913c10.3126,18.9348,15.6564,39.2017,20.9418,59.9346
	c5.438,21.3307,6.3975,44.4503,6.5536,66.3782c0.1575,22.0935-1.3568,45.1182-6.2789,66.6433
	c-4.7166,20.626-9.5502,40.6268-17.2726,60.4215c-8.1235,20.8223-19.2517,40.6216-29.2167,60.5945
	c-9.6312,19.3036-18.8459,38.775-28.1715,58.2219c-9.0332,18.8382-17.9552,38.7832-24.1283,58.7702
	c-6.0906,19.7205-11.4923,40.3191-10.5479,61.155c0.3005,6.6298,1.0413,21.0134,7.0928,25.2928
	c3.0446,2.1529,8.7776,0.9438,12.2129,0.8727c6.3768-0.1321,12.7501-0.3911,19.1221-0.6643
	c46.1556-1.9804,92.4683-1.7981,138.6613-1.7421c45.6135,0.0554,91.168,0.327,136.7052,3.2466
	c22.5062,1.4431,45.473,2.3863,67.7657,5.9072c20.1079,3.1758,39.5485,8.5963,55.7,21.558
	c15.6963,12.5963,29.2531,29.2695,40.9388,45.5461c11.8752,16.5402,23.2302,34.9225,30.1526,54.1568
	c3.2183,8.9421,6.8928,18.6378,7.8779,28.1332c1.1016,10.6202-0.9648,19.2577-6.2202,28.4807
	c-10.1318,17.7805-24.4211,32.9326-35.489,50.126c-5.583,8.6729-9.6936,17.2821-8.1272,27.8564
	c1.5747,10.6291,6.9783,20.636,12.1709,29.8923c9.8293,17.5203,21.5195,34.1235,30.4695,52.1269
	c4.1145,8.2762,7.9856,17.6038,7.1602,27.0314c-0.873,9.9706-6.8962,18.98-12.7485,26.7786
	c-12.3955,16.5182-27.3953,30.9061-39.7224,47.4825c-5.7537,7.7368-11.4421,16.1678-11.7715,26.1475
	c-0.349,10.5802,2.4435,20.917,6.0121,30.7833c7.3593,20.3463,17.4034,40.3459,23.2218,61.1707
	c6.0962,21.8181-0.4746,39.7147-13.5889,57.3821c-12.5927,16.9652-28.8911,30.9794-43.8359,45.7869
	c-14.4075,14.2753-27.1533,28.6671-27.001,50.0262c0.078,10.9647,0.1594,21.9293,0.2654,32.8938
	c0.1068,11.0503,1.4434,22.9386-1.6632,33.6997c-5.4886,19.0134-21.4039,36.1284-34.7365,50.1152
	c-14.4594,15.1687-30.6368,28.7886-47.7722,40.8331c-17.229,12.1102-34.8148,20.5139-55.1942,25.6375
	c-20.9213,5.2599-42.9412,7.8329-64.4313,9.6827c-90.5679,7.7957-181.6688,2.4065-272.3201-0.8159
	c-44.7479-1.5908-89.6749-4.4669-134.2426-8.8455c-10.2728-1.0093-20.5367-1.4325-30.8199-2.1771
	c-10.1438-0.7345-20.5139-3.3689-30.5206-5.2036c-21.0529-3.8597-42.129-7.6986-63.1381-11.7871
	c-42.7938-8.328-85.7592-15.8619-128.62-23.8524c-21.6165-4.0298-43.25-7.9535-64.874-11.9396
	c-10.5157-1.9385-21.0328-3.881-31.521-5.9642c-3.2131-0.6381-6.5777-1.077-7.1765-4.8949
	c-0.9216-5.8757-0.113-12.4637-0.1102-18.4089c0.0895-185.7694,0.0862-371.5388,0.087-557.3082
	c0.0001-11.146,0.0001-22.2924,0.0002-33.4384c0-2.7115-0.8728-7.2691,0.6964-9.6804c1.8351-2.8201,9.785-1.3683,12.4819-1.3834
	c9.8492-0.0552,19.8955,0.8073,29.6094-1.1854c9.9312-2.0372,19.0519-6.6622,27.5282-12.1067
	c34.0913-21.8972,59.651-57.7686,81.01-91.4886c23.2795-36.7521,43.9276-75.4404,62.1334-114.9429
	c18.3373-39.788,34.3848-80.5327,51.8765-120.6971c17.0248-39.0923,48.2561-65.2728,80.8578-91.2554
	c16.4827-13.1361,32.6666-26.548,46.3193-42.7003c13.8022-16.3293,24.9845-34.8267,33.7615-54.2959
	c18.1166-40.1859,30.1417-84.3115,36.2227-127.9681c6.2136-44.6116,12.6005-89.2005,14.9655-134.2462
	c0.3915-7.4563,1.6073-14.5817,7.3704-19.8748c2.4473-2.2476,5.3876-3.8947,8.4872-5.0599
	C1513.9449,63.4004,1519.2778,63.2971,1520.5629,60.7246C1530.4342,60.7246,1519.7723,62.3071,1520.5629,60.7246z
	 M654.1641,898.2689c0,113.5108,0,227.0218,0,340.5325c0,46.5209,0,93.0417,0,139.5626c0,23.2604,0,46.5209,0,69.7813
	c0,12.0956,0,24.1909,0,36.2863c0,5.5826,0,11.165,0,16.7476c2.9518,0.6001,3.0689,7.4297,3.9023,9.6901
	c5.8673,15.9106,20.7537,29.5836,36.6451,35.1024c9.34,3.2439,18.8117,3.2965,28.5798,3.3029
	c11.0439,0.0074,22.0878,0.012,33.1318,0.0145c46.0164,0.0112,92.0328-0.0095,138.0493,0.0101
	c19.0814,0.0082,36.9496-6.9194,49.56-21.6554c13.4414-15.7072,14.5669-34.699,14.5618-54.4558
	c-0.012-46.6202-0.0196-93.2406-0.025-139.8608c-0.0109-93.2407-0.0132-186.4812-0.0248-279.7219
	c-0.0057-46.3734,1.1533-92.9179-0.0865-139.2733c-0.5342-19.9727-7.4376-38.3519-23.3443-51.1132
	c-15.4163-12.3679-33.5844-13.338-52.5065-13.3804c-46.3998-0.1041-92.7999-0.1375-139.1995-0.0057
	c-20.9935,0.0595-42.7304-1.9652-61.1382,10.0648c-7.4174,4.8474-13.9482,11.0446-18.7111,18.5484
	c-2.1867,3.4451-3.9904,7.1271-5.4059,10.9533C657.395,891.446,656.8574,897.8079,654.1641,898.2689
	C654.1641,1099.2389,655.7422,897.9987,654.1641,898.2689z"/>
</svg>
